PathFileType	4	(X/Y/Z)	C:\Users\WrightLab\Desktop\Jo\P3_6.trc
DataRate	CameraRate	NumFrames	NumMarkers	Units	OrigDataRate	OrigDataStartFrame	OrigNumFrames
100.00	100.00	       8	19	mm	100.00	67	       530
Frame#	Time	Headset_Front			Headset_Back			Headset_Left			Headset_Right			Left_Shoulder			Right_Shoulder			Sternum			C7			Left Elbow			Right Elbow			Left Wrist			Right Wrist			Left ASIS			Right ASIS			S2			Left Knee			Right Knee			Left Ankle			Right Ankle			
		X1	Y1	Z1	X2	Y2	Z2	X3	Y3	Z3	X4	Y4	Z4	X5	Y5	Z5	X6	Y6	Z6	X7	Y7	Z7	X8	Y8	Z8	X9	Y9	Z9	X10	Y10	Z10	X11	Y11	Z11	X12	Y12	Z12	X13	Y13	Z13	X14	Y14	Z14	X15	Y15	Z15	X16	Y16	Z16	X17	Y17	Z17	X18	Y18	Z18	X19	Y19	Z19	

67	0.660				-77.85676	1659.16431	1918.70618	-208.00449	1581.06665	1854.61987				-259.44626	1366.25464	1898.24292	87.52936	1382.79565	1949.05969				-92.52814	1428.54578	1981.66492	-357.16306	1082.04407	1778.24280	186.84883	1041.97180	1958.43042	-357.17139	980.80591	1593.97693	201.11693	891.38898	1781.98022	-166.01944	889.90100	1820.03748				-90.84587	980.29480	2050.26538	-145.52634	495.56592	1743.27576	49.32671	476.92941	1986.42139	-116.71589	176.64558	1673.59949	16.44584	162.30478	2107.49609	
68	0.670				-78.54804	1658.25708	1910.81726	-207.67303	1579.17078	1847.49377				-258.81870	1364.55090	1891.00842	87.66306	1381.59778	1941.01318				-93.00684	1427.35669	1974.33069	-357.66748	1081.05127	1769.12646	186.87726	1041.45764	1951.05103	-359.45602	980.18982	1585.82019	200.60989	890.69830	1773.42212	-165.15669	887.46875	1812.09338				-90.52168	979.36310	2042.34058	-144.11386	494.69424	1735.13708	49.91465	476.91162	1982.08667	-115.07278	176.30600	1664.06592	16.68832	162.78145	2107.01514	
69	0.680				-78.50753	1656.75830	1901.82446	-208.54578	1577.92493	1840.50171				-258.50491	1362.94446	1883.87549	88.03745	1380.05798	1932.71875				-92.44604	1425.84460	1966.70776	-358.32770	1080.20142	1761.13550	187.75670	1040.93274	1943.68494	-360.57608	978.84094	1577.70898	201.55681	890.76678	1766.76807	-163.89160	885.90894	1804.14807				-89.67281	977.68304	2033.38586	-143.08363	493.75830	1725.99756	50.79206	476.24078	1977.84143	-113.69917	175.83919	1650.84363	17.02732	163.38266	2106.21899	
70	0.690				-79.22121	1656.08606	1895.04675	-208.92947	1576.02307	1831.71973				-258.73032	1360.94824	1875.93250	87.92356	1379.59631	1926.64160				-92.52525	1424.91357	1959.82800	-358.66330	1078.90979	1752.67859	187.90794	1040.22852	1936.01758	-362.36356	977.07434	1567.54883	201.09930	890.18555	1755.89478	-162.94861	884.74927	1794.70300				-88.72462	976.14282	2025.39014	-142.06662	492.29599	1721.16248	51.62095	475.77020	1973.04150	-111.32021	173.29912	1645.20117	17.54142	164.21515	2104.78271	
71	0.700				-79.11295	1654.54773	1887.50549	-209.32536	1574.74854	1824.85608				-258.27823	1359.62073	1869.00879	88.44251	1378.47693	1918.17822				-92.81980	1423.11194	1952.10754	-359.47238	1078.64465	1745.06079	188.01170	1038.80615	1927.17517	-364.41934	975.83508	1561.15295	200.77995	890.05603	1749.01501	-162.35405	883.52283	1786.75317				-88.01637	975.07434	2017.51929	-140.49507	491.12253	1710.94604	52.42677	475.25659	1969.07263	-110.40001	171.67287	1640.30957	17.64169	164.73941	2104.23120	
72	0.710				-79.28084	1653.42212	1879.85107	-209.70058	1573.30737	1818.83423				-258.20511	1357.88135	1861.59961	87.52736	1377.71704	1910.70581				-93.12770	1421.65491	1944.49072	-360.02243	1077.33411	1735.70776	188.56078	1038.32837	1918.73328	-366.56555	974.46033	1552.96094	201.17853	888.95227	1740.43799	-161.65248	883.21619	1776.26941				-87.37570	973.18365	2008.00989	-138.91377	488.72073	1705.48535	53.30862	474.85770	1964.60718	-109.52172	168.31624	1636.50696	17.77337	165.77731	2103.07397	
73	0.720				-79.81927	1651.85193	1872.12683	-210.25024	1572.12463	1811.44592				-258.37097	1355.66870	1852.73547	87.34122	1376.25586	1901.94580				-93.46850	1419.54358	1936.66602	-360.82047	1076.25403	1728.46130	189.18480	1037.46240	1911.31982	-367.74194	972.93726	1545.12756	200.97873	888.16962	1732.06531	-160.38986	881.97180	1768.09924				-86.64846	971.31604	1999.65417	-137.42827	486.73508	1695.94385	53.65628	473.94977	1958.61377	-108.68200	164.18265	1635.43799	18.13603	166.64130	2101.86670	
74	0.730				-80.56772	1649.78528	1864.62952	-211.03754	1569.99304	1803.06067				-258.51477	1354.25732	1846.05408	86.84399	1375.15161	1893.92834				-93.83315	1418.24512	1929.06604	-361.32242	1075.22156	1720.30859	189.37892	1036.59412	1903.73926	-370.24057	972.17407	1537.47839	198.65027	886.81903	1727.44312	-159.19038	880.59637	1757.40784				-85.44913	970.20129	1990.99890	-136.10080	485.15533	1685.78418	54.60514	473.37238	1954.10107	-108.64002	160.69324	1632.78467	18.27966	168.20963	2100.96094	
